<svg preserveAspectRatio="none" overflow="visible" style="display: block;" width="21.5005" height="19.5" viewBox="0 0 21.5005 19.5" fill="none" xmlns="http://www.w3.org/2000/svg">
<g id="elements">
<path id="Icon" d="M16.7505 14C18.0063 14.0002 19.0691 14.8471 19.396 16H20.7505C21.1643 16.0002 21.5005 16.3361 21.5005 16.75C21.5005 17.1639 21.1643 17.4998 20.7505 17.5H19.396C19.0691 18.6529 18.0063 19.4998 16.7505 19.5C15.4945 19.5 14.431 18.653 14.104 17.5H7.39603C7.06906 18.6529 6.00632 19.4998 4.75052 19.5C3.49452 19.5 2.43103 18.653 2.10403 17.5H0.750518C0.336518 17.5 0.000517856 17.164 0.000517856 16.75C0.000517878 16.336 0.336518 16 0.750518 16H2.10403C2.43103 14.847 3.49452 14 4.75052 14C6.00632 14.0002 7.06906 14.8471 7.39603 16H14.104C14.431 14.847 15.4945 14 16.7505 14ZM4.75052 15.5C4.06152 15.5 3.50052 16.061 3.50052 16.75C3.50052 17.439 4.06152 18 4.75052 18C5.43932 17.9998 6.00052 17.4389 6.00052 16.75C6.00052 16.0611 5.43932 15.5002 4.75052 15.5ZM16.7505 15.5C16.0615 15.5 15.5005 16.061 15.5005 16.75C15.5005 17.439 16.0615 18 16.7505 18C17.4393 17.9998 18.0005 17.4389 18.0005 16.75C18.0005 16.0611 17.4393 15.5002 16.7505 15.5ZM17.0005 0C18.9303 0.000238888 20.5005 1.57015 20.5005 3.5C20.5005 4.415 20.1468 5.24905 19.5708 5.87305C20.7138 6.45005 21.5005 7.635 21.5005 9C21.5005 10.9299 19.9303 12.4998 18.0005 12.5H15.7505C14.6806 12.5 14.0351 12.5001 13.5161 11.9941L13.5074 11.9854C13.0004 11.4734 13.0005 10.824 13.0005 9.75V2.75C13.0005 1.676 13.0004 1.02765 13.5074 0.514648L13.5161 0.505859C14.0351 -6.80585e-05 14.6806 0 15.7505 0H17.0005ZM5.24954 0.000976563C5.40115 0.000976614 5.50089 0.0015646 5.62161 0.0214844C6.08161 0.103484 6.47985 0.402242 6.69485 0.823242C6.73884 0.907226 6.7674 0.985373 6.79739 1.06836C6.80735 1.09525 6.81863 1.12629 6.83255 1.16309C6.8345 1.16796 6.83644 1.17284 6.83743 1.17676L8.52103 5.9873C8.525 5.99821 8.52879 6.00861 8.53177 6.01953L10.4556 11.502C10.5926 11.893 10.3866 12.321 9.99661 12.458C9.91488 12.4869 9.83127 12.499 9.74954 12.499C9.4398 12.4988 9.15148 12.3068 9.04251 11.998L7.28763 7H3.21146L1.45755 11.998C1.32059 12.3889 0.892395 12.5938 0.501494 12.457C0.110494 12.32 -0.09449 11.892 0.04251 11.501L1.96634 6.01758C1.97023 6.00681 1.97318 5.99614 1.97708 5.98633L3.66067 1.17578C3.6609 1.17502 3.66462 1.16594 3.66653 1.16211C3.68044 1.12534 3.69076 1.09426 3.70071 1.06738C3.73069 0.984443 3.75931 0.906197 3.80325 0.822266C4.01818 0.401403 4.41589 0.102578 4.86771 0.0224609C4.99671 0.00146094 5.09754 0.000976563 5.24954 0.000976563ZM14.5005 9.75C14.5005 10.2466 14.5 10.8082 14.5708 10.9258C14.6758 10.9998 15.2705 11 15.7505 11H18.0005C19.1033 10.9998 20.0005 10.1029 20.0005 9C20.0005 7.89715 19.1033 7.00024 18.0005 7H14.5005V9.75ZM5.13821 1.50879C5.13121 1.52679 5.1228 1.5482 5.1138 1.5752C5.10284 1.6051 5.09065 1.63889 5.07571 1.67871L3.73782 5.5H6.76224L5.42435 1.67871C5.40941 1.63888 5.39722 1.6051 5.38626 1.5752C5.37626 1.5482 5.36885 1.52679 5.36185 1.50879L5.35794 1.50098H5.14212L5.13821 1.50879ZM15.7505 1.5C15.2705 1.5 14.6748 1.50022 14.5708 1.57422C14.5 1.69078 14.5005 2.25336 14.5005 2.75V5.5H17.0005C18.1033 5.49976 19.0005 4.60285 19.0005 3.5C19.0005 2.39715 18.1033 1.50024 17.0005 1.5H15.7505Z" fill="url(#paint0_linear_0_32)"/>
</g>
<defs>
<linearGradient id="paint0_linear_0_32" x1="10.7502" y1="0" x2="10.7502" y2="19.5" gradientUnits="userSpaceOnUse">
<stop stop-color="white"/>
<stop offset="1" stop-color="#2E5CA8"/>
</linearGradient>
</defs>
</svg>
