<svg preserveAspectRatio="none" overflow="visible" style="display: block;" width="19.9997" height="19.9997" viewBox="0 0 19.9997 19.9997" fill="none" xmlns="http://www.w3.org/2000/svg">
<g id="elements">
<path id="Icon" d="M7.29284 11.2928C7.68336 10.9023 8.31638 10.9023 8.7069 11.2928C9.09743 11.6834 9.09742 12.3164 8.7069 12.7069L4.84362 16.5702L5.81335 17.5399C5.94415 17.6705 6.11124 17.8373 6.22839 17.996C6.3496 18.1602 6.63909 18.6114 6.42175 19.1727C6.20602 19.7297 5.69449 19.87 5.4901 19.911C5.29727 19.9497 5.06319 19.9603 4.88171 19.9686L4.84069 19.9706C4.23352 19.9989 3.43437 20.0179 2.72057 19.9725C2.36594 19.95 2.00249 19.9095 1.68151 19.8368C1.40896 19.775 0.974411 19.6521 0.661003 19.3387C0.347594 19.0253 0.224707 18.5908 0.162956 18.3182C0.0902575 17.9972 0.0497772 17.6338 0.0272141 17.2792C-0.018196 16.5654 0.00084789 15.7662 0.0291672 15.1591L0.0311204 15.118C0.0393948 14.9366 0.0500774 14.7025 0.0887376 14.5096C0.129754 14.3053 0.270344 13.7948 0.827019 13.579C1.38831 13.3617 1.83951 13.6501 2.00378 13.7714C2.16248 13.8885 2.32929 14.0556 2.45983 14.1864L3.42956 15.1561L7.29284 11.2928ZM11.2928 11.2928C11.6834 10.9023 12.3164 10.9023 12.7069 11.2928L16.5702 15.1561L17.5399 14.1864C17.6705 14.0556 17.8373 13.8885 17.996 13.7714C18.1602 13.6501 18.6114 13.3617 19.1727 13.579C19.7294 13.7948 19.87 14.3053 19.911 14.5096C19.9497 14.7025 19.9603 14.9366 19.9686 15.118L19.9706 15.1591C19.9989 15.7662 20.0179 16.5654 19.9725 17.2792C19.95 17.6338 19.9095 17.9972 19.8368 18.3182C19.775 18.5908 19.6521 19.0253 19.3387 19.3387C19.0253 19.6521 18.5908 19.775 18.3182 19.8368C17.9972 19.9095 17.6338 19.95 17.2792 19.9725C16.5654 20.0179 15.7662 19.9989 15.1591 19.9706L15.118 19.9686C14.9366 19.9603 14.7025 19.9497 14.5096 19.911C14.3052 19.87 13.7937 19.7297 13.578 19.1727C13.3607 18.6114 13.6501 18.1602 13.7714 17.996C13.8885 17.8373 14.0556 17.6705 14.1864 17.5399L15.1561 16.5702L11.2928 12.7069C10.9023 12.3164 10.9023 11.6834 11.2928 11.2928ZM2.72057 0.0272148C3.43437 -0.0182037 4.23352 0.000857412 4.84069 0.0291679L4.88171 0.031121C5.06319 0.0393934 5.29727 0.0500805 5.4901 0.0887382C5.69449 0.12976 6.20602 0.270027 6.42175 0.827019C6.63909 1.38837 6.3496 1.83955 6.22839 2.00378C6.11124 2.16248 5.94415 2.32929 5.81335 2.45983L4.84362 3.42956L8.7069 7.29284C9.09742 7.68336 9.09743 8.31638 8.7069 8.7069C8.31638 9.09742 7.68336 9.09742 7.29284 8.7069L3.42956 4.84362L2.45983 5.81335C2.32929 5.94415 2.16248 6.11125 2.00378 6.22839C1.83951 6.34962 1.38831 6.63808 0.827019 6.42077C0.270344 6.20497 0.129754 5.69445 0.0887376 5.49011C0.0500774 5.29727 0.0393948 5.06318 0.0311204 4.88171L0.0291672 4.84069C0.00084789 4.23353 -0.018196 3.43437 0.0272141 2.72057C0.0497772 2.36594 0.0902575 2.0025 0.162956 1.68151C0.224707 1.40897 0.347594 0.974414 0.661003 0.661004C0.974411 0.3476 1.40896 0.224711 1.68151 0.162957C2.00249 0.0902556 2.36594 0.0497819 2.72057 0.0272148ZM15.1591 0.0291679C15.7662 0.000857412 16.5654 -0.0182037 17.2792 0.0272148C17.6338 0.0497819 17.9972 0.0902556 18.3182 0.162957C18.5908 0.224711 19.0253 0.3476 19.3387 0.661004C19.6521 0.974414 19.775 1.40897 19.8368 1.68151C19.9095 2.0025 19.95 2.36594 19.9725 2.72057C20.0179 3.43437 19.9989 4.23353 19.9706 4.84069L19.9686 4.88171C19.9603 5.06318 19.9497 5.29727 19.911 5.49011C19.87 5.69445 19.7294 6.20497 19.1727 6.42077C18.6114 6.63808 18.1602 6.34962 17.996 6.22839C17.8373 6.11125 17.6705 5.94415 17.5399 5.81335L16.5702 4.84362L12.7069 8.7069C12.3164 9.09742 11.6834 9.09742 11.2928 8.7069C10.9023 8.31638 10.9023 7.68336 11.2928 7.29284L15.1561 3.42956L14.1864 2.45983C14.0556 2.32929 13.8885 2.16248 13.7714 2.00378C13.6501 1.83955 13.3607 1.38837 13.578 0.827019C13.7937 0.270027 14.3052 0.12976 14.5096 0.0887382C14.7025 0.0500805 14.9366 0.0393934 15.118 0.031121L15.1591 0.0291679Z" fill="#4A8FE7"/>
</g>
</svg>
