<svg preserveAspectRatio="none" overflow="visible" style="display: block;" width="12.5" height="19.5" viewBox="0 0 12.5 19.5" fill="none" xmlns="http://www.w3.org/2000/svg">
<g id="elements">
<path id="Icon" d="M4.75293 5.00098C5.28874 5.00332 5.75362 5.01295 6.14746 5.06738C6.55332 5.12349 6.93156 5.23286 7.27735 5.46387C7.57762 5.6645 7.8355 5.92238 8.03613 6.22266C8.30066 6.61862 8.40594 7.05783 8.4541 7.53125C8.50009 7.98354 8.50002 8.54245 8.5 9.21192V10.75C8.5 11.1642 8.16422 11.5 7.75 11.5C7.33579 11.5 7 11.1642 7 10.75V9.25C7 8.53216 6.99929 8.05002 6.96192 7.68262C6.92581 7.32788 6.86152 7.1641 6.78906 7.05567C6.69788 6.91921 6.5808 6.80212 6.44434 6.71094C6.3495 6.64757 6.21207 6.59003 5.94238 6.55274C5.66062 6.51379 5.28988 6.50335 4.74707 6.50098C4.59289 6.50031 4.42793 6.5 4.25 6.5C3.53216 6.5 3.05002 6.50071 2.68262 6.53809C2.32788 6.57419 2.1641 6.63849 2.05567 6.71094C1.91921 6.80212 1.80212 6.91921 1.71094 7.05567C1.63849 7.1641 1.57419 7.32788 1.53809 7.68262C1.50071 8.05002 1.5 8.53216 1.5 9.25V15.25C1.5 15.9678 1.50071 16.45 1.53809 16.8174C1.57419 17.1721 1.63849 17.3359 1.71094 17.4443C1.80212 17.5808 1.91921 17.6979 2.05567 17.7891C2.1641 17.8615 2.32788 17.9258 2.68262 17.9619C3.05002 17.9993 3.53216 18 4.25 18C4.96784 18 5.44998 17.9993 5.81738 17.9619C6.17212 17.9258 6.33591 17.8615 6.44434 17.7891C6.5808 17.6979 6.69788 17.5808 6.78906 17.4443C6.87009 17.3231 6.9393 17.1349 6.97266 16.6934C7.00394 16.2804 7.36436 15.9708 7.77735 16.002C8.1902 16.0333 8.49995 16.3937 8.46875 16.8066C8.42818 17.3435 8.32972 17.8379 8.03613 18.2773C7.8355 18.5776 7.57762 18.8355 7.27735 19.0361C6.88139 19.3007 6.44217 19.4059 5.96875 19.4541C5.51647 19.5001 4.95754 19.5 4.28809 19.5H4.21192C3.54246 19.5 2.98354 19.5001 2.53125 19.4541C2.05783 19.4059 1.61862 19.3007 1.22266 19.0361C0.922385 18.8355 0.664504 18.5776 0.463869 18.2773C0.199341 17.8814 0.0940593 17.4422 0.0458998 16.9688C-9.0479e-05 16.5165 -1.51752e-05 15.9575 1.392e-06 15.2881V9.21192C-1.51752e-05 8.54245 -9.0719e-05 7.98354 0.0458998 7.53125C0.0940593 7.05783 0.199341 6.61862 0.463869 6.22266C0.664504 5.92238 0.922385 5.6645 1.22266 5.46387C1.61862 5.19934 2.05783 5.09406 2.53125 5.0459C2.98354 4.99991 3.54245 4.99998 4.21192 5H4.25098C4.42765 5 4.59527 5.00029 4.75293 5.00098ZM8.28809 1.46298e-06C8.95755 -1.57002e-05 9.51646 -9.10047e-05 9.96875 0.0458999C10.4422 0.0940596 10.8814 0.19934 11.2773 0.463869C11.5776 0.664504 11.8355 0.922384 12.0361 1.22266C12.3007 1.61862 12.4059 2.05783 12.4541 2.53125C12.5001 2.98354 12.5 3.54245 12.5 4.21192V10.2881C12.5 10.9576 12.5001 11.5165 12.4541 11.9688C12.4059 12.4422 12.3007 12.8814 12.0361 13.2773C11.8355 13.5776 11.5776 13.8355 11.2773 14.0361C10.8814 14.3007 10.4422 14.4059 9.96875 14.4541C9.51646 14.5001 8.95755 14.5 8.28809 14.5H8.24902C8.07235 14.5 7.90474 14.4997 7.74707 14.499C7.21126 14.4967 6.74638 14.487 6.35254 14.4326C5.94668 14.3765 5.56845 14.2671 5.22266 14.0361C4.92239 13.8355 4.6645 13.5776 4.46387 13.2773C4.19934 12.8814 4.09406 12.4422 4.0459 11.9688C3.99991 11.5165 3.99999 10.9576 4 10.2881V8.75C4 8.33579 4.33579 8 4.75 8C5.16421 8 5.5 8.33579 5.5 8.75V10.25C5.5 10.9678 5.50071 11.45 5.53809 11.8174C5.57419 12.1721 5.63849 12.3359 5.71094 12.4443C5.80212 12.5808 5.91921 12.6979 6.05567 12.7891C6.1505 12.8524 6.28793 12.91 6.55762 12.9473C6.83939 12.9862 7.21012 12.9967 7.75293 12.999C7.90711 12.9997 8.07208 13 8.25 13C8.96784 13 9.44998 12.9993 9.81738 12.9619C10.1721 12.9258 10.3359 12.8615 10.4443 12.7891C10.5808 12.6979 10.6979 12.5808 10.7891 12.4443C10.8615 12.3359 10.9258 12.1721 10.9619 11.8174C10.9993 11.45 11 10.9678 11 10.25V4.25C11 3.53216 10.9993 3.05002 10.9619 2.68262C10.9258 2.32788 10.8615 2.1641 10.7891 2.05567C10.6979 1.91921 10.5808 1.80213 10.4443 1.71094C10.3359 1.63849 10.1721 1.57419 9.81738 1.53809C9.44998 1.50071 8.96784 1.5 8.25 1.5C7.53216 1.5 7.05002 1.50071 6.68262 1.53809C6.32788 1.57419 6.1641 1.63849 6.05567 1.71094C5.91921 1.80212 5.80213 1.91921 5.71094 2.05567C5.62991 2.17693 5.5607 2.36514 5.52735 2.80664C5.49607 3.21961 5.13565 3.52925 4.72266 3.49805C4.3098 3.46666 4.00006 3.10628 4.03125 2.69336C4.07182 2.15648 4.17028 1.66212 4.46387 1.22266C4.6645 0.922384 4.92239 0.664505 5.22266 0.463869C5.61862 0.199341 6.05783 0.0940596 6.53125 0.0458999C6.98354 -9.07407e-05 7.54246 -1.57002e-05 8.21192 1.46298e-06H8.28809Z" fill="#161616"/>
</g>
</svg>
